<mxfile host="Electron" modified="2024-11-07T09:42:36.031Z" agent="Mozilla/5.0 (Windows NT 10.0; Win64; x64) AppleWebKit/537.36 (KHTML, like Gecko) draw.io/21.7.5 Chrome/114.0.5735.289 Electron/25.8.1 Safari/537.36" etag="cdzJvsbTEQBvlmKOgLdo" version="21.7.5" type="device" pages="3">
  <diagram name="Sơ đồ Usecase" id="nLh5E3lV9tKzvgMvojzC">
    <mxGraphModel dx="1110" dy="1552" grid="1" gridSize="10" guides="1" tooltips="1" connect="1" arrows="1" fold="1" page="1" pageScale="1" pageWidth="850" pageHeight="1100" math="0" shadow="0">
      <root>
        <mxCell id="0" />
        <mxCell id="1" parent="0" />
        <mxCell id="iu2pZhvcbrbRPRUcMF5v-3" value="" style="rounded=0;whiteSpace=wrap;html=1;" vertex="1" parent="1">
          <mxGeometry x="170" y="-130" width="250" height="530" as="geometry" />
        </mxCell>
        <mxCell id="iu2pZhvcbrbRPRUcMF5v-5" value="User" style="shape=umlActor;verticalLabelPosition=bottom;verticalAlign=top;html=1;outlineConnect=0;" vertex="1" parent="1">
          <mxGeometry x="40" y="60" width="30" height="60" as="geometry" />
        </mxCell>
        <mxCell id="iu2pZhvcbrbRPRUcMF5v-6" value="Kết nối tới Server" style="ellipse;whiteSpace=wrap;html=1;" vertex="1" parent="1">
          <mxGeometry x="240" y="-100" width="115" height="50" as="geometry" />
        </mxCell>
        <mxCell id="iu2pZhvcbrbRPRUcMF5v-7" value="Duyệt danh sách &lt;br&gt;tệp/thư mục" style="ellipse;whiteSpace=wrap;html=1;" vertex="1" parent="1">
          <mxGeometry x="237.5" y="-40" width="115" height="60" as="geometry" />
        </mxCell>
        <mxCell id="iu2pZhvcbrbRPRUcMF5v-8" value="Server" style="ellipse;whiteSpace=wrap;html=1;aspect=fixed;" vertex="1" parent="1">
          <mxGeometry x="460" y="45" width="80" height="80" as="geometry" />
        </mxCell>
        <mxCell id="iu2pZhvcbrbRPRUcMF5v-10" value="" style="endArrow=none;html=1;rounded=0;entryX=0.072;entryY=0.723;entryDx=0;entryDy=0;entryPerimeter=0;" edge="1" parent="1" source="iu2pZhvcbrbRPRUcMF5v-5" target="iu2pZhvcbrbRPRUcMF5v-6">
          <mxGeometry width="50" height="50" relative="1" as="geometry">
            <mxPoint x="90" y="10" as="sourcePoint" />
            <mxPoint x="140" y="-40" as="targetPoint" />
          </mxGeometry>
        </mxCell>
        <mxCell id="iu2pZhvcbrbRPRUcMF5v-11" value="" style="endArrow=none;html=1;rounded=0;entryX=0;entryY=0.5;entryDx=0;entryDy=0;" edge="1" parent="1" target="iu2pZhvcbrbRPRUcMF5v-7">
          <mxGeometry width="50" height="50" relative="1" as="geometry">
            <mxPoint x="70" y="80" as="sourcePoint" />
            <mxPoint x="265" y="-26" as="targetPoint" />
          </mxGeometry>
        </mxCell>
        <mxCell id="iu2pZhvcbrbRPRUcMF5v-12" value="" style="endArrow=none;html=1;rounded=0;exitX=1;exitY=0.5;exitDx=0;exitDy=0;entryX=0;entryY=0;entryDx=0;entryDy=0;" edge="1" parent="1" source="iu2pZhvcbrbRPRUcMF5v-6" target="iu2pZhvcbrbRPRUcMF5v-8">
          <mxGeometry width="50" height="50" relative="1" as="geometry">
            <mxPoint x="73" y="76" as="sourcePoint" />
            <mxPoint x="263" y="-27" as="targetPoint" />
          </mxGeometry>
        </mxCell>
        <mxCell id="iu2pZhvcbrbRPRUcMF5v-17" value="" style="endArrow=none;html=1;rounded=0;entryX=0.052;entryY=0.275;entryDx=0;entryDy=0;entryPerimeter=0;exitX=1;exitY=0.5;exitDx=0;exitDy=0;" edge="1" parent="1" source="iu2pZhvcbrbRPRUcMF5v-7" target="iu2pZhvcbrbRPRUcMF5v-8">
          <mxGeometry width="50" height="50" relative="1" as="geometry">
            <mxPoint x="340" y="-45" as="sourcePoint" />
            <mxPoint x="482" y="67" as="targetPoint" />
          </mxGeometry>
        </mxCell>
        <mxCell id="iu2pZhvcbrbRPRUcMF5v-18" value="Tạo thư mục" style="ellipse;whiteSpace=wrap;html=1;" vertex="1" parent="1">
          <mxGeometry x="247.5" y="30" width="87.5" height="45" as="geometry" />
        </mxCell>
        <mxCell id="iu2pZhvcbrbRPRUcMF5v-19" value="" style="endArrow=none;html=1;rounded=0;" edge="1" parent="1" target="iu2pZhvcbrbRPRUcMF5v-18">
          <mxGeometry width="50" height="50" relative="1" as="geometry">
            <mxPoint x="70" y="80" as="sourcePoint" />
            <mxPoint x="250" as="targetPoint" />
          </mxGeometry>
        </mxCell>
        <mxCell id="iu2pZhvcbrbRPRUcMF5v-20" value="" style="endArrow=none;html=1;rounded=0;entryX=-0.01;entryY=0.39;entryDx=0;entryDy=0;entryPerimeter=0;" edge="1" parent="1" source="iu2pZhvcbrbRPRUcMF5v-18" target="iu2pZhvcbrbRPRUcMF5v-8">
          <mxGeometry width="50" height="50" relative="1" as="geometry">
            <mxPoint x="365" as="sourcePoint" />
            <mxPoint x="474" y="77" as="targetPoint" />
          </mxGeometry>
        </mxCell>
        <mxCell id="iu2pZhvcbrbRPRUcMF5v-21" value="Xóa tệp / thư mục" style="ellipse;whiteSpace=wrap;html=1;" vertex="1" parent="1">
          <mxGeometry x="240" y="80" width="105" height="45" as="geometry" />
        </mxCell>
        <mxCell id="iu2pZhvcbrbRPRUcMF5v-22" value="" style="endArrow=none;html=1;rounded=0;entryX=0;entryY=0.5;entryDx=0;entryDy=0;" edge="1" parent="1" target="iu2pZhvcbrbRPRUcMF5v-21">
          <mxGeometry width="50" height="50" relative="1" as="geometry">
            <mxPoint x="70" y="80" as="sourcePoint" />
            <mxPoint x="259" y="68" as="targetPoint" />
          </mxGeometry>
        </mxCell>
        <mxCell id="iu2pZhvcbrbRPRUcMF5v-24" value="" style="endArrow=none;html=1;rounded=0;" edge="1" parent="1" source="iu2pZhvcbrbRPRUcMF5v-21">
          <mxGeometry width="50" height="50" relative="1" as="geometry">
            <mxPoint x="343" y="68" as="sourcePoint" />
            <mxPoint x="460" y="90" as="targetPoint" />
          </mxGeometry>
        </mxCell>
        <mxCell id="iu2pZhvcbrbRPRUcMF5v-25" value="Đổi tên tệp / thư mục" style="ellipse;whiteSpace=wrap;html=1;" vertex="1" parent="1">
          <mxGeometry x="235" y="130" width="120" height="45" as="geometry" />
        </mxCell>
        <mxCell id="iu2pZhvcbrbRPRUcMF5v-26" value="" style="endArrow=none;html=1;rounded=0;" edge="1" parent="1" target="iu2pZhvcbrbRPRUcMF5v-25">
          <mxGeometry width="50" height="50" relative="1" as="geometry">
            <mxPoint x="70" y="80" as="sourcePoint" />
            <mxPoint x="250" y="113" as="targetPoint" />
          </mxGeometry>
        </mxCell>
        <mxCell id="iu2pZhvcbrbRPRUcMF5v-27" value="" style="endArrow=none;html=1;rounded=0;entryX=0.063;entryY=0.765;entryDx=0;entryDy=0;entryPerimeter=0;" edge="1" parent="1" source="iu2pZhvcbrbRPRUcMF5v-25" target="iu2pZhvcbrbRPRUcMF5v-8">
          <mxGeometry width="50" height="50" relative="1" as="geometry">
            <mxPoint x="354" y="109" as="sourcePoint" />
            <mxPoint x="470" y="100" as="targetPoint" />
          </mxGeometry>
        </mxCell>
        <mxCell id="iu2pZhvcbrbRPRUcMF5v-28" value="Sao chép / Di chuyển &lt;br&gt;tệp / thư mục" style="ellipse;whiteSpace=wrap;html=1;" vertex="1" parent="1">
          <mxGeometry x="220" y="175" width="140" height="55" as="geometry" />
        </mxCell>
        <mxCell id="iu2pZhvcbrbRPRUcMF5v-29" value="" style="endArrow=none;html=1;rounded=0;entryX=0;entryY=0.5;entryDx=0;entryDy=0;" edge="1" parent="1" target="iu2pZhvcbrbRPRUcMF5v-28">
          <mxGeometry width="50" height="50" relative="1" as="geometry">
            <mxPoint x="70" y="80" as="sourcePoint" />
            <mxPoint x="259" y="148" as="targetPoint" />
          </mxGeometry>
        </mxCell>
        <mxCell id="iu2pZhvcbrbRPRUcMF5v-30" value="" style="endArrow=none;html=1;rounded=0;entryX=0;entryY=1;entryDx=0;entryDy=0;exitX=0.982;exitY=0.355;exitDx=0;exitDy=0;exitPerimeter=0;" edge="1" parent="1" source="iu2pZhvcbrbRPRUcMF5v-28" target="iu2pZhvcbrbRPRUcMF5v-8">
          <mxGeometry width="50" height="50" relative="1" as="geometry">
            <mxPoint x="354" y="149" as="sourcePoint" />
            <mxPoint x="475" y="116" as="targetPoint" />
          </mxGeometry>
        </mxCell>
        <mxCell id="iu2pZhvcbrbRPRUcMF5v-31" value="Xem thông tin &lt;br&gt;tệp / thư mục" style="ellipse;whiteSpace=wrap;html=1;" vertex="1" parent="1">
          <mxGeometry x="222.5" y="235" width="140" height="55" as="geometry" />
        </mxCell>
        <mxCell id="iu2pZhvcbrbRPRUcMF5v-32" value="" style="endArrow=none;html=1;rounded=0;entryX=0.036;entryY=0.37;entryDx=0;entryDy=0;entryPerimeter=0;exitX=1;exitY=0.3333333333333333;exitDx=0;exitDy=0;exitPerimeter=0;" edge="1" parent="1" source="iu2pZhvcbrbRPRUcMF5v-5" target="iu2pZhvcbrbRPRUcMF5v-31">
          <mxGeometry width="50" height="50" relative="1" as="geometry">
            <mxPoint x="80" y="90" as="sourcePoint" />
            <mxPoint x="230" y="213" as="targetPoint" />
          </mxGeometry>
        </mxCell>
        <mxCell id="iu2pZhvcbrbRPRUcMF5v-33" value="" style="endArrow=none;html=1;rounded=0;entryX=0.982;entryY=0.37;entryDx=0;entryDy=0;entryPerimeter=0;exitX=0.219;exitY=0.91;exitDx=0;exitDy=0;exitPerimeter=0;" edge="1" parent="1" source="iu2pZhvcbrbRPRUcMF5v-8" target="iu2pZhvcbrbRPRUcMF5v-31">
          <mxGeometry width="50" height="50" relative="1" as="geometry">
            <mxPoint x="80" y="90" as="sourcePoint" />
            <mxPoint x="238" y="265" as="targetPoint" />
          </mxGeometry>
        </mxCell>
        <mxCell id="iu2pZhvcbrbRPRUcMF5v-61" value="" style="rounded=0;whiteSpace=wrap;html=1;" vertex="1" parent="1">
          <mxGeometry x="810" y="-140" width="250" height="520" as="geometry" />
        </mxCell>
        <mxCell id="iu2pZhvcbrbRPRUcMF5v-63" value="Lấy dữ liệu&amp;nbsp;" style="ellipse;whiteSpace=wrap;html=1;" vertex="1" parent="1">
          <mxGeometry x="880" y="-110" width="115" height="50" as="geometry" />
        </mxCell>
        <mxCell id="iu2pZhvcbrbRPRUcMF5v-64" value="Kiểm tra tài khoản,&lt;br style=&quot;border-color: var(--border-color);&quot;&gt;mật khẩu" style="ellipse;whiteSpace=wrap;html=1;" vertex="1" parent="1">
          <mxGeometry x="877.5" y="-50" width="115" height="60" as="geometry" />
        </mxCell>
        <mxCell id="iu2pZhvcbrbRPRUcMF5v-66" value="" style="endArrow=none;html=1;rounded=0;entryX=0.072;entryY=0.723;entryDx=0;entryDy=0;entryPerimeter=0;" edge="1" parent="1" target="iu2pZhvcbrbRPRUcMF5v-63">
          <mxGeometry width="50" height="50" relative="1" as="geometry">
            <mxPoint x="710" y="68.06006829470198" as="sourcePoint" />
            <mxPoint x="780" y="-50" as="targetPoint" />
          </mxGeometry>
        </mxCell>
        <mxCell id="iu2pZhvcbrbRPRUcMF5v-67" value="" style="endArrow=none;html=1;rounded=0;entryX=0;entryY=0.5;entryDx=0;entryDy=0;" edge="1" parent="1" target="iu2pZhvcbrbRPRUcMF5v-64">
          <mxGeometry width="50" height="50" relative="1" as="geometry">
            <mxPoint x="710" y="70" as="sourcePoint" />
            <mxPoint x="905" y="-36" as="targetPoint" />
          </mxGeometry>
        </mxCell>
        <mxCell id="iu2pZhvcbrbRPRUcMF5v-70" value="Tạo thư mục" style="ellipse;whiteSpace=wrap;html=1;" vertex="1" parent="1">
          <mxGeometry x="887.5" y="20" width="87.5" height="45" as="geometry" />
        </mxCell>
        <mxCell id="iu2pZhvcbrbRPRUcMF5v-71" value="" style="endArrow=none;html=1;rounded=0;" edge="1" parent="1" target="iu2pZhvcbrbRPRUcMF5v-70">
          <mxGeometry width="50" height="50" relative="1" as="geometry">
            <mxPoint x="710" y="70" as="sourcePoint" />
            <mxPoint x="890" y="-10" as="targetPoint" />
          </mxGeometry>
        </mxCell>
        <mxCell id="iu2pZhvcbrbRPRUcMF5v-73" value="Xóa tệp / thư mục" style="ellipse;whiteSpace=wrap;html=1;" vertex="1" parent="1">
          <mxGeometry x="880" y="70" width="105" height="45" as="geometry" />
        </mxCell>
        <mxCell id="iu2pZhvcbrbRPRUcMF5v-74" value="" style="endArrow=none;html=1;rounded=0;entryX=0;entryY=0.5;entryDx=0;entryDy=0;" edge="1" parent="1" target="iu2pZhvcbrbRPRUcMF5v-73">
          <mxGeometry width="50" height="50" relative="1" as="geometry">
            <mxPoint x="710" y="70" as="sourcePoint" />
            <mxPoint x="899" y="58" as="targetPoint" />
          </mxGeometry>
        </mxCell>
        <mxCell id="iu2pZhvcbrbRPRUcMF5v-76" value="Đổi tên tệp / thư mục" style="ellipse;whiteSpace=wrap;html=1;" vertex="1" parent="1">
          <mxGeometry x="875" y="120" width="120" height="45" as="geometry" />
        </mxCell>
        <mxCell id="iu2pZhvcbrbRPRUcMF5v-77" value="" style="endArrow=none;html=1;rounded=0;" edge="1" parent="1" target="iu2pZhvcbrbRPRUcMF5v-76">
          <mxGeometry width="50" height="50" relative="1" as="geometry">
            <mxPoint x="710" y="70" as="sourcePoint" />
            <mxPoint x="890" y="103" as="targetPoint" />
          </mxGeometry>
        </mxCell>
        <mxCell id="iu2pZhvcbrbRPRUcMF5v-79" value="Sao chép / Di chuyển &lt;br&gt;tệp / thư mục" style="ellipse;whiteSpace=wrap;html=1;" vertex="1" parent="1">
          <mxGeometry x="860" y="165" width="140" height="55" as="geometry" />
        </mxCell>
        <mxCell id="iu2pZhvcbrbRPRUcMF5v-80" value="" style="endArrow=none;html=1;rounded=0;entryX=0;entryY=0.5;entryDx=0;entryDy=0;" edge="1" parent="1" target="iu2pZhvcbrbRPRUcMF5v-79">
          <mxGeometry width="50" height="50" relative="1" as="geometry">
            <mxPoint x="710" y="70" as="sourcePoint" />
            <mxPoint x="899" y="138" as="targetPoint" />
          </mxGeometry>
        </mxCell>
        <mxCell id="iu2pZhvcbrbRPRUcMF5v-82" value="Xem thông tin &lt;br&gt;tệp / thư mục" style="ellipse;whiteSpace=wrap;html=1;" vertex="1" parent="1">
          <mxGeometry x="862.5" y="225" width="140" height="55" as="geometry" />
        </mxCell>
        <mxCell id="iu2pZhvcbrbRPRUcMF5v-83" value="" style="endArrow=none;html=1;rounded=0;entryX=0.036;entryY=0.37;entryDx=0;entryDy=0;entryPerimeter=0;exitX=1;exitY=0.3333333333333333;exitDx=0;exitDy=0;exitPerimeter=0;" edge="1" parent="1" target="iu2pZhvcbrbRPRUcMF5v-82">
          <mxGeometry width="50" height="50" relative="1" as="geometry">
            <mxPoint x="710" y="70" as="sourcePoint" />
            <mxPoint x="870" y="203" as="targetPoint" />
          </mxGeometry>
        </mxCell>
        <mxCell id="iu2pZhvcbrbRPRUcMF5v-85" value="Client" style="ellipse;whiteSpace=wrap;html=1;aspect=fixed;" vertex="1" parent="1">
          <mxGeometry x="630" y="30" width="80" height="80" as="geometry" />
        </mxCell>
        <mxCell id="iu2pZhvcbrbRPRUcMF5v-87" value="" style="endArrow=none;html=1;rounded=0;entryX=1;entryY=1;entryDx=0;entryDy=0;exitX=0;exitY=0;exitDx=0;exitDy=0;" edge="1" parent="1" source="iu2pZhvcbrbRPRUcMF5v-86" target="iu2pZhvcbrbRPRUcMF5v-63">
          <mxGeometry width="50" height="50" relative="1" as="geometry">
            <mxPoint x="720" y="78.06006829470198" as="sourcePoint" />
            <mxPoint x="898" y="-64" as="targetPoint" />
          </mxGeometry>
        </mxCell>
        <mxCell id="iu2pZhvcbrbRPRUcMF5v-88" value="" style="endArrow=none;html=1;rounded=0;entryX=0.974;entryY=0.671;entryDx=0;entryDy=0;entryPerimeter=0;" edge="1" parent="1" source="iu2pZhvcbrbRPRUcMF5v-86" target="iu2pZhvcbrbRPRUcMF5v-64">
          <mxGeometry width="50" height="50" relative="1" as="geometry">
            <mxPoint x="1180" y="60" as="sourcePoint" />
            <mxPoint x="888" y="-10" as="targetPoint" />
          </mxGeometry>
        </mxCell>
        <mxCell id="iu2pZhvcbrbRPRUcMF5v-89" value="" style="endArrow=none;html=1;rounded=0;entryX=1;entryY=0.5;entryDx=0;entryDy=0;exitX=0.275;exitY=0.038;exitDx=0;exitDy=0;exitPerimeter=0;" edge="1" parent="1" source="iu2pZhvcbrbRPRUcMF5v-95" target="iu2pZhvcbrbRPRUcMF5v-70">
          <mxGeometry width="50" height="50" relative="1" as="geometry">
            <mxPoint x="720" y="80" as="sourcePoint" />
            <mxPoint x="899" y="58" as="targetPoint" />
          </mxGeometry>
        </mxCell>
        <mxCell id="iu2pZhvcbrbRPRUcMF5v-90" value="" style="endArrow=none;html=1;rounded=0;entryX=0.953;entryY=0.345;entryDx=0;entryDy=0;exitX=0.038;exitY=0.175;exitDx=0;exitDy=0;exitPerimeter=0;entryPerimeter=0;" edge="1" parent="1" source="iu2pZhvcbrbRPRUcMF5v-95" target="iu2pZhvcbrbRPRUcMF5v-73">
          <mxGeometry width="50" height="50" relative="1" as="geometry">
            <mxPoint x="720" y="80" as="sourcePoint" />
            <mxPoint x="890" y="103" as="targetPoint" />
          </mxGeometry>
        </mxCell>
        <mxCell id="iu2pZhvcbrbRPRUcMF5v-91" value="" style="endArrow=none;html=1;rounded=0;exitX=-0.05;exitY=0.388;exitDx=0;exitDy=0;entryX=1;entryY=0;entryDx=0;entryDy=0;exitPerimeter=0;" edge="1" parent="1" source="iu2pZhvcbrbRPRUcMF5v-95" target="iu2pZhvcbrbRPRUcMF5v-76">
          <mxGeometry width="50" height="50" relative="1" as="geometry">
            <mxPoint x="720" y="80" as="sourcePoint" />
            <mxPoint x="899" y="138" as="targetPoint" />
          </mxGeometry>
        </mxCell>
        <mxCell id="iu2pZhvcbrbRPRUcMF5v-92" value="" style="endArrow=none;html=1;rounded=0;entryX=0.975;entryY=0.245;entryDx=0;entryDy=0;exitX=0;exitY=0.5;exitDx=0;exitDy=0;entryPerimeter=0;" edge="1" parent="1" source="iu2pZhvcbrbRPRUcMF5v-95" target="iu2pZhvcbrbRPRUcMF5v-79">
          <mxGeometry width="50" height="50" relative="1" as="geometry">
            <mxPoint x="720" y="80" as="sourcePoint" />
            <mxPoint x="870" y="203" as="targetPoint" />
          </mxGeometry>
        </mxCell>
        <mxCell id="iu2pZhvcbrbRPRUcMF5v-93" value="" style="endArrow=none;html=1;rounded=0;exitX=0.038;exitY=0.713;exitDx=0;exitDy=0;exitPerimeter=0;" edge="1" parent="1" source="iu2pZhvcbrbRPRUcMF5v-95" target="iu2pZhvcbrbRPRUcMF5v-82">
          <mxGeometry width="50" height="50" relative="1" as="geometry">
            <mxPoint x="720" y="80" as="sourcePoint" />
            <mxPoint x="878" y="255" as="targetPoint" />
          </mxGeometry>
        </mxCell>
        <mxCell id="iu2pZhvcbrbRPRUcMF5v-86" value="Database" style="ellipse;whiteSpace=wrap;html=1;aspect=fixed;" vertex="1" parent="1">
          <mxGeometry x="1140" y="-40" width="80" height="80" as="geometry" />
        </mxCell>
        <mxCell id="iu2pZhvcbrbRPRUcMF5v-95" value="Storage" style="ellipse;whiteSpace=wrap;html=1;aspect=fixed;" vertex="1" parent="1">
          <mxGeometry x="1130" y="130" width="80" height="80" as="geometry" />
        </mxCell>
        <mxCell id="iu2pZhvcbrbRPRUcMF5v-1" value="Server" style="rounded=0;whiteSpace=wrap;html=1;fillColor=#FF6161;" vertex="1" parent="1">
          <mxGeometry x="875" y="300" width="120" height="60" as="geometry" />
        </mxCell>
        <mxCell id="iu2pZhvcbrbRPRUcMF5v-2" value="Client" style="rounded=0;whiteSpace=wrap;html=1;fillColor=#58FF4D;" vertex="1" parent="1">
          <mxGeometry x="240" y="320" width="120" height="60" as="geometry" />
        </mxCell>
      </root>
    </mxGraphModel>
  </diagram>
  <diagram id="_0lfxjqp6O3QyC1cljVO" name="Sơ đồ lớp tổng thể">
    <mxGraphModel dx="1269" dy="638" grid="1" gridSize="10" guides="1" tooltips="1" connect="1" arrows="1" fold="1" page="1" pageScale="1" pageWidth="850" pageHeight="1100" math="0" shadow="0">
      <root>
        <mxCell id="0" />
        <mxCell id="1" parent="0" />
        <mxCell id="OTf-mPCkqk4F5-ePiz1Z-1" value="FTPLoginController" style="swimlane;fontStyle=1;align=center;verticalAlign=top;childLayout=stackLayout;horizontal=1;startSize=26;horizontalStack=0;resizeParent=1;resizeParentMax=0;resizeLast=0;collapsible=1;marginBottom=0;whiteSpace=wrap;html=1;" parent="1" vertex="1">
          <mxGeometry x="280" y="50" width="220" height="104" as="geometry" />
        </mxCell>
        <mxCell id="OTf-mPCkqk4F5-ePiz1Z-2" value="- ftpLoginView: FTPLoginView&lt;br&gt;- ftpLoginModel: FTPLoginModel" style="text;strokeColor=none;fillColor=none;align=left;verticalAlign=top;spacingLeft=4;spacingRight=4;overflow=hidden;rotatable=0;points=[[0,0.5],[1,0.5]];portConstraint=eastwest;whiteSpace=wrap;html=1;" parent="OTf-mPCkqk4F5-ePiz1Z-1" vertex="1">
          <mxGeometry y="26" width="220" height="44" as="geometry" />
        </mxCell>
        <mxCell id="OTf-mPCkqk4F5-ePiz1Z-3" value="" style="line;strokeWidth=1;fillColor=none;align=left;verticalAlign=middle;spacingTop=-1;spacingLeft=3;spacingRight=3;rotatable=0;labelPosition=right;points=[];portConstraint=eastwest;strokeColor=inherit;" parent="OTf-mPCkqk4F5-ePiz1Z-1" vertex="1">
          <mxGeometry y="70" width="220" height="8" as="geometry" />
        </mxCell>
        <mxCell id="OTf-mPCkqk4F5-ePiz1Z-4" value="FTPLoginController()" style="text;strokeColor=none;fillColor=none;align=left;verticalAlign=top;spacingLeft=4;spacingRight=4;overflow=hidden;rotatable=0;points=[[0,0.5],[1,0.5]];portConstraint=eastwest;whiteSpace=wrap;html=1;" parent="OTf-mPCkqk4F5-ePiz1Z-1" vertex="1">
          <mxGeometry y="78" width="220" height="26" as="geometry" />
        </mxCell>
        <mxCell id="OTf-mPCkqk4F5-ePiz1Z-5" value="FTPLoginModel&lt;br&gt;" style="swimlane;fontStyle=1;align=center;verticalAlign=top;childLayout=stackLayout;horizontal=1;startSize=26;horizontalStack=0;resizeParent=1;resizeParentMax=0;resizeLast=0;collapsible=1;marginBottom=0;whiteSpace=wrap;html=1;" parent="1" vertex="1">
          <mxGeometry x="250" y="310" width="155" height="130" as="geometry" />
        </mxCell>
        <mxCell id="OTf-mPCkqk4F5-ePiz1Z-6" value="- socket: Socket&lt;br&gt;- send: OutputStream&lt;br&gt;- recv: BufferedReader" style="text;strokeColor=none;fillColor=none;align=left;verticalAlign=top;spacingLeft=4;spacingRight=4;overflow=hidden;rotatable=0;points=[[0,0.5],[1,0.5]];portConstraint=eastwest;whiteSpace=wrap;html=1;" parent="OTf-mPCkqk4F5-ePiz1Z-5" vertex="1">
          <mxGeometry y="26" width="155" height="54" as="geometry" />
        </mxCell>
        <mxCell id="OTf-mPCkqk4F5-ePiz1Z-7" value="" style="line;strokeWidth=1;fillColor=none;align=left;verticalAlign=middle;spacingTop=-1;spacingLeft=3;spacingRight=3;rotatable=0;labelPosition=right;points=[];portConstraint=eastwest;strokeColor=inherit;" parent="OTf-mPCkqk4F5-ePiz1Z-5" vertex="1">
          <mxGeometry y="80" width="155" height="8" as="geometry" />
        </mxCell>
        <mxCell id="OTf-mPCkqk4F5-ePiz1Z-8" value="FTPLoginModel()&lt;br&gt;+ connect(): void" style="text;strokeColor=none;fillColor=none;align=left;verticalAlign=top;spacingLeft=4;spacingRight=4;overflow=hidden;rotatable=0;points=[[0,0.5],[1,0.5]];portConstraint=eastwest;whiteSpace=wrap;html=1;" parent="OTf-mPCkqk4F5-ePiz1Z-5" vertex="1">
          <mxGeometry y="88" width="155" height="42" as="geometry" />
        </mxCell>
        <mxCell id="OTf-mPCkqk4F5-ePiz1Z-9" value="FTPLoginView" style="swimlane;fontStyle=1;align=center;verticalAlign=top;childLayout=stackLayout;horizontal=1;startSize=26;horizontalStack=0;resizeParent=1;resizeParentMax=0;resizeLast=0;collapsible=1;marginBottom=0;whiteSpace=wrap;html=1;" parent="1" vertex="1">
          <mxGeometry x="390" y="190" width="140" height="110" as="geometry" />
        </mxCell>
        <mxCell id="OTf-mPCkqk4F5-ePiz1Z-10" value="-" style="text;strokeColor=none;fillColor=none;align=left;verticalAlign=top;spacingLeft=4;spacingRight=4;overflow=hidden;rotatable=0;points=[[0,0.5],[1,0.5]];portConstraint=eastwest;whiteSpace=wrap;html=1;" parent="OTf-mPCkqk4F5-ePiz1Z-9" vertex="1">
          <mxGeometry y="26" width="140" height="26" as="geometry" />
        </mxCell>
        <mxCell id="OTf-mPCkqk4F5-ePiz1Z-11" value="" style="line;strokeWidth=1;fillColor=none;align=left;verticalAlign=middle;spacingTop=-1;spacingLeft=3;spacingRight=3;rotatable=0;labelPosition=right;points=[];portConstraint=eastwest;strokeColor=inherit;" parent="OTf-mPCkqk4F5-ePiz1Z-9" vertex="1">
          <mxGeometry y="52" width="140" height="8" as="geometry" />
        </mxCell>
        <mxCell id="OTf-mPCkqk4F5-ePiz1Z-12" value="FTPLoginView()&lt;br&gt;+ showMessage(): void" style="text;strokeColor=none;fillColor=none;align=left;verticalAlign=top;spacingLeft=4;spacingRight=4;overflow=hidden;rotatable=0;points=[[0,0.5],[1,0.5]];portConstraint=eastwest;whiteSpace=wrap;html=1;" parent="OTf-mPCkqk4F5-ePiz1Z-9" vertex="1">
          <mxGeometry y="60" width="140" height="50" as="geometry" />
        </mxCell>
        <mxCell id="OTf-mPCkqk4F5-ePiz1Z-13" value="FTPMainController" style="swimlane;fontStyle=1;align=center;verticalAlign=top;childLayout=stackLayout;horizontal=1;startSize=26;horizontalStack=0;resizeParent=1;resizeParentMax=0;resizeLast=0;collapsible=1;marginBottom=0;whiteSpace=wrap;html=1;" parent="1" vertex="1">
          <mxGeometry x="600" y="37" width="190" height="130" as="geometry" />
        </mxCell>
        <mxCell id="OTf-mPCkqk4F5-ePiz1Z-14" value="- primaryStage: Stage" style="text;strokeColor=none;fillColor=none;align=left;verticalAlign=top;spacingLeft=4;spacingRight=4;overflow=hidden;rotatable=0;points=[[0,0.5],[1,0.5]];portConstraint=eastwest;whiteSpace=wrap;html=1;" parent="OTf-mPCkqk4F5-ePiz1Z-13" vertex="1">
          <mxGeometry y="26" width="190" height="26" as="geometry" />
        </mxCell>
        <mxCell id="OTf-mPCkqk4F5-ePiz1Z-15" value="" style="line;strokeWidth=1;fillColor=none;align=left;verticalAlign=middle;spacingTop=-1;spacingLeft=3;spacingRight=3;rotatable=0;labelPosition=right;points=[];portConstraint=eastwest;strokeColor=inherit;" parent="OTf-mPCkqk4F5-ePiz1Z-13" vertex="1">
          <mxGeometry y="52" width="190" height="8" as="geometry" />
        </mxCell>
        <mxCell id="OTf-mPCkqk4F5-ePiz1Z-16" value="FTPMainController()&lt;br&gt;+ confirmClose(): void&lt;br&gt;+ prepareMenuItem(): void&lt;br&gt;+ prepareContextMenu(): void" style="text;strokeColor=none;fillColor=none;align=left;verticalAlign=top;spacingLeft=4;spacingRight=4;overflow=hidden;rotatable=0;points=[[0,0.5],[1,0.5]];portConstraint=eastwest;whiteSpace=wrap;html=1;" parent="OTf-mPCkqk4F5-ePiz1Z-13" vertex="1">
          <mxGeometry y="60" width="190" height="70" as="geometry" />
        </mxCell>
        <mxCell id="OTf-mPCkqk4F5-ePiz1Z-17" value="FTPMainModel" style="swimlane;fontStyle=1;align=center;verticalAlign=top;childLayout=stackLayout;horizontal=1;startSize=26;horizontalStack=0;resizeParent=1;resizeParentMax=0;resizeLast=0;collapsible=1;marginBottom=0;whiteSpace=wrap;html=1;" parent="1" vertex="1">
          <mxGeometry x="700" y="250" width="140" height="150" as="geometry" />
        </mxCell>
        <mxCell id="OTf-mPCkqk4F5-ePiz1Z-18" value="- localPath: String&lt;br&gt;- remotePath: String" style="text;strokeColor=none;fillColor=none;align=left;verticalAlign=top;spacingLeft=4;spacingRight=4;overflow=hidden;rotatable=0;points=[[0,0.5],[1,0.5]];portConstraint=eastwest;whiteSpace=wrap;html=1;" parent="OTf-mPCkqk4F5-ePiz1Z-17" vertex="1">
          <mxGeometry y="26" width="140" height="44" as="geometry" />
        </mxCell>
        <mxCell id="OTf-mPCkqk4F5-ePiz1Z-19" value="" style="line;strokeWidth=1;fillColor=none;align=left;verticalAlign=middle;spacingTop=-1;spacingLeft=3;spacingRight=3;rotatable=0;labelPosition=right;points=[];portConstraint=eastwest;strokeColor=inherit;" parent="OTf-mPCkqk4F5-ePiz1Z-17" vertex="1">
          <mxGeometry y="70" width="140" height="8" as="geometry" />
        </mxCell>
        <mxCell id="OTf-mPCkqk4F5-ePiz1Z-20" value="FTPMainModel()&lt;br&gt;+ mkdirLocal(): void&lt;br&gt;+ mkdirRemote(): void&lt;br&gt;....." style="text;strokeColor=none;fillColor=none;align=left;verticalAlign=top;spacingLeft=4;spacingRight=4;overflow=hidden;rotatable=0;points=[[0,0.5],[1,0.5]];portConstraint=eastwest;whiteSpace=wrap;html=1;" parent="OTf-mPCkqk4F5-ePiz1Z-17" vertex="1">
          <mxGeometry y="78" width="140" height="72" as="geometry" />
        </mxCell>
        <mxCell id="OTf-mPCkqk4F5-ePiz1Z-21" value="FTPMainView" style="swimlane;fontStyle=1;align=center;verticalAlign=top;childLayout=stackLayout;horizontal=1;startSize=26;horizontalStack=0;resizeParent=1;resizeParentMax=0;resizeLast=0;collapsible=1;marginBottom=0;whiteSpace=wrap;html=1;" parent="1" vertex="1">
          <mxGeometry x="550" y="190" width="140" height="130" as="geometry" />
        </mxCell>
        <mxCell id="OTf-mPCkqk4F5-ePiz1Z-22" value="- textArea: TextArea" style="text;strokeColor=none;fillColor=none;align=left;verticalAlign=top;spacingLeft=4;spacingRight=4;overflow=hidden;rotatable=0;points=[[0,0.5],[1,0.5]];portConstraint=eastwest;whiteSpace=wrap;html=1;" parent="OTf-mPCkqk4F5-ePiz1Z-21" vertex="1">
          <mxGeometry y="26" width="140" height="26" as="geometry" />
        </mxCell>
        <mxCell id="OTf-mPCkqk4F5-ePiz1Z-23" value="" style="line;strokeWidth=1;fillColor=none;align=left;verticalAlign=middle;spacingTop=-1;spacingLeft=3;spacingRight=3;rotatable=0;labelPosition=right;points=[];portConstraint=eastwest;strokeColor=inherit;" parent="OTf-mPCkqk4F5-ePiz1Z-21" vertex="1">
          <mxGeometry y="52" width="140" height="8" as="geometry" />
        </mxCell>
        <mxCell id="OTf-mPCkqk4F5-ePiz1Z-24" value="FTPMainView()&lt;br&gt;+ showMessage(): void&lt;br&gt;+ askYesOrNo(): void&lt;br&gt;+ showProperties(): void" style="text;strokeColor=none;fillColor=none;align=left;verticalAlign=top;spacingLeft=4;spacingRight=4;overflow=hidden;rotatable=0;points=[[0,0.5],[1,0.5]];portConstraint=eastwest;whiteSpace=wrap;html=1;" parent="OTf-mPCkqk4F5-ePiz1Z-21" vertex="1">
          <mxGeometry y="60" width="140" height="70" as="geometry" />
        </mxCell>
        <mxCell id="OTf-mPCkqk4F5-ePiz1Z-25" value="" style="endArrow=classic;html=1;rounded=0;entryX=0.75;entryY=0;entryDx=0;entryDy=0;" parent="1" source="OTf-mPCkqk4F5-ePiz1Z-1" target="OTf-mPCkqk4F5-ePiz1Z-5" edge="1">
          <mxGeometry width="50" height="50" relative="1" as="geometry">
            <mxPoint x="200" y="210" as="sourcePoint" />
            <mxPoint x="250" y="160" as="targetPoint" />
          </mxGeometry>
        </mxCell>
        <mxCell id="OTf-mPCkqk4F5-ePiz1Z-26" value="" style="endArrow=classic;html=1;rounded=0;exitX=0.648;exitY=1.09;exitDx=0;exitDy=0;exitPerimeter=0;entryX=0.413;entryY=0.02;entryDx=0;entryDy=0;entryPerimeter=0;" parent="1" source="OTf-mPCkqk4F5-ePiz1Z-4" target="OTf-mPCkqk4F5-ePiz1Z-9" edge="1">
          <mxGeometry width="50" height="50" relative="1" as="geometry">
            <mxPoint x="185" y="242" as="sourcePoint" />
            <mxPoint x="250" y="193" as="targetPoint" />
          </mxGeometry>
        </mxCell>
        <mxCell id="oLY27aaFNWclGzv1_3kP-1" value="Client" style="rounded=0;whiteSpace=wrap;html=1;fillColor=#58FF4D;" vertex="1" parent="1">
          <mxGeometry x="490" y="360" width="120" height="60" as="geometry" />
        </mxCell>
        <mxCell id="ExBSEJeYhkI91sJurVqE-3" value="" style="endArrow=classic;html=1;rounded=0;exitX=0.356;exitY=1.007;exitDx=0;exitDy=0;exitPerimeter=0;" edge="1" parent="1" source="OTf-mPCkqk4F5-ePiz1Z-16" target="OTf-mPCkqk4F5-ePiz1Z-21">
          <mxGeometry width="50" height="50" relative="1" as="geometry">
            <mxPoint x="278" y="283" as="sourcePoint" />
            <mxPoint x="310" y="294" as="targetPoint" />
          </mxGeometry>
        </mxCell>
        <mxCell id="ExBSEJeYhkI91sJurVqE-4" value="" style="endArrow=classic;html=1;rounded=0;exitX=0.716;exitY=1.079;exitDx=0;exitDy=0;exitPerimeter=0;" edge="1" parent="1" source="OTf-mPCkqk4F5-ePiz1Z-16" target="OTf-mPCkqk4F5-ePiz1Z-17">
          <mxGeometry width="50" height="50" relative="1" as="geometry">
            <mxPoint x="760" y="291" as="sourcePoint" />
            <mxPoint x="812" y="320" as="targetPoint" />
          </mxGeometry>
        </mxCell>
        <mxCell id="a5IRhsQl6V-p8-0aOR5y-1" value="" style="endArrow=classic;html=1;rounded=0;exitX=1.008;exitY=0.186;exitDx=0;exitDy=0;exitPerimeter=0;entryX=0.001;entryY=0.878;entryDx=0;entryDy=0;entryPerimeter=0;" edge="1" parent="1" source="OTf-mPCkqk4F5-ePiz1Z-2" target="OTf-mPCkqk4F5-ePiz1Z-14">
          <mxGeometry width="50" height="50" relative="1" as="geometry">
            <mxPoint x="570" y="130" as="sourcePoint" />
            <mxPoint x="620" y="80" as="targetPoint" />
          </mxGeometry>
        </mxCell>
        <mxCell id="RcZarx6HuU96OubllClO-1" value="Server" style="rounded=0;whiteSpace=wrap;html=1;fillColor=#FF9696;" vertex="1" parent="1">
          <mxGeometry x="1440" y="37" width="120" height="60" as="geometry" />
        </mxCell>
        <mxCell id="RcZarx6HuU96OubllClO-2" value="FTPServerUI" style="swimlane;fontStyle=1;align=center;verticalAlign=top;childLayout=stackLayout;horizontal=1;startSize=26;horizontalStack=0;resizeParent=1;resizeParentMax=0;resizeLast=0;collapsible=1;marginBottom=0;whiteSpace=wrap;html=1;" vertex="1" parent="1">
          <mxGeometry x="1030" y="180" width="200" height="120" as="geometry" />
        </mxCell>
        <mxCell id="RcZarx6HuU96OubllClO-3" value="- ftpServerController: FTPServerController" style="text;strokeColor=none;fillColor=none;align=left;verticalAlign=top;spacingLeft=4;spacingRight=4;overflow=hidden;rotatable=0;points=[[0,0.5],[1,0.5]];portConstraint=eastwest;whiteSpace=wrap;html=1;" vertex="1" parent="RcZarx6HuU96OubllClO-2">
          <mxGeometry y="26" width="200" height="44" as="geometry" />
        </mxCell>
        <mxCell id="RcZarx6HuU96OubllClO-4" value="" style="line;strokeWidth=1;fillColor=none;align=left;verticalAlign=middle;spacingTop=-1;spacingLeft=3;spacingRight=3;rotatable=0;labelPosition=right;points=[];portConstraint=eastwest;strokeColor=inherit;" vertex="1" parent="RcZarx6HuU96OubllClO-2">
          <mxGeometry y="70" width="200" height="8" as="geometry" />
        </mxCell>
        <mxCell id="RcZarx6HuU96OubllClO-5" value="FTPServerUI()&lt;br&gt;+ run(): void" style="text;strokeColor=none;fillColor=none;align=left;verticalAlign=top;spacingLeft=4;spacingRight=4;overflow=hidden;rotatable=0;points=[[0,0.5],[1,0.5]];portConstraint=eastwest;whiteSpace=wrap;html=1;" vertex="1" parent="RcZarx6HuU96OubllClO-2">
          <mxGeometry y="78" width="200" height="42" as="geometry" />
        </mxCell>
        <mxCell id="RcZarx6HuU96OubllClO-6" value="FTPServerModel" style="swimlane;fontStyle=1;align=center;verticalAlign=top;childLayout=stackLayout;horizontal=1;startSize=26;horizontalStack=0;resizeParent=1;resizeParentMax=0;resizeLast=0;collapsible=1;marginBottom=0;whiteSpace=wrap;html=1;" vertex="1" parent="1">
          <mxGeometry x="1250" y="167" width="200" height="160" as="geometry" />
        </mxCell>
        <mxCell id="RcZarx6HuU96OubllClO-7" value="- path: String&lt;br&gt;- ipAddress: String&lt;br&gt;- port: int&lt;br&gt;- username: String&lt;br&gt;- password: String" style="text;strokeColor=none;fillColor=none;align=left;verticalAlign=top;spacingLeft=4;spacingRight=4;overflow=hidden;rotatable=0;points=[[0,0.5],[1,0.5]];portConstraint=eastwest;whiteSpace=wrap;html=1;" vertex="1" parent="RcZarx6HuU96OubllClO-6">
          <mxGeometry y="26" width="200" height="84" as="geometry" />
        </mxCell>
        <mxCell id="RcZarx6HuU96OubllClO-8" value="" style="line;strokeWidth=1;fillColor=none;align=left;verticalAlign=middle;spacingTop=-1;spacingLeft=3;spacingRight=3;rotatable=0;labelPosition=right;points=[];portConstraint=eastwest;strokeColor=inherit;" vertex="1" parent="RcZarx6HuU96OubllClO-6">
          <mxGeometry y="110" width="200" height="8" as="geometry" />
        </mxCell>
        <mxCell id="RcZarx6HuU96OubllClO-9" value="FTPServerModel()&lt;br&gt;+ start(): void" style="text;strokeColor=none;fillColor=none;align=left;verticalAlign=top;spacingLeft=4;spacingRight=4;overflow=hidden;rotatable=0;points=[[0,0.5],[1,0.5]];portConstraint=eastwest;whiteSpace=wrap;html=1;" vertex="1" parent="RcZarx6HuU96OubllClO-6">
          <mxGeometry y="118" width="200" height="42" as="geometry" />
        </mxCell>
        <mxCell id="RcZarx6HuU96OubllClO-10" value="FTPServerController" style="swimlane;fontStyle=1;align=center;verticalAlign=top;childLayout=stackLayout;horizontal=1;startSize=26;horizontalStack=0;resizeParent=1;resizeParentMax=0;resizeLast=0;collapsible=1;marginBottom=0;whiteSpace=wrap;html=1;" vertex="1" parent="1">
          <mxGeometry x="1200" y="37" width="200" height="110" as="geometry" />
        </mxCell>
        <mxCell id="RcZarx6HuU96OubllClO-11" value="- model: FTPServerModel" style="text;strokeColor=none;fillColor=none;align=left;verticalAlign=top;spacingLeft=4;spacingRight=4;overflow=hidden;rotatable=0;points=[[0,0.5],[1,0.5]];portConstraint=eastwest;whiteSpace=wrap;html=1;" vertex="1" parent="RcZarx6HuU96OubllClO-10">
          <mxGeometry y="26" width="200" height="34" as="geometry" />
        </mxCell>
        <mxCell id="RcZarx6HuU96OubllClO-12" value="" style="line;strokeWidth=1;fillColor=none;align=left;verticalAlign=middle;spacingTop=-1;spacingLeft=3;spacingRight=3;rotatable=0;labelPosition=right;points=[];portConstraint=eastwest;strokeColor=inherit;" vertex="1" parent="RcZarx6HuU96OubllClO-10">
          <mxGeometry y="60" width="200" height="8" as="geometry" />
        </mxCell>
        <mxCell id="RcZarx6HuU96OubllClO-13" value="FTPServerController()&lt;br&gt;+ execute(): void" style="text;strokeColor=none;fillColor=none;align=left;verticalAlign=top;spacingLeft=4;spacingRight=4;overflow=hidden;rotatable=0;points=[[0,0.5],[1,0.5]];portConstraint=eastwest;whiteSpace=wrap;html=1;" vertex="1" parent="RcZarx6HuU96OubllClO-10">
          <mxGeometry y="68" width="200" height="42" as="geometry" />
        </mxCell>
        <mxCell id="RcZarx6HuU96OubllClO-14" value="FTPServerDatabase" style="swimlane;fontStyle=1;align=center;verticalAlign=top;childLayout=stackLayout;horizontal=1;startSize=26;horizontalStack=0;resizeParent=1;resizeParentMax=0;resizeLast=0;collapsible=1;marginBottom=0;whiteSpace=wrap;html=1;" vertex="1" parent="1">
          <mxGeometry x="1490" y="120" width="200" height="170" as="geometry" />
        </mxCell>
        <mxCell id="RcZarx6HuU96OubllClO-15" value="- ipAddress: String&lt;br style=&quot;border-color: var(--border-color);&quot;&gt;- port: int&lt;br style=&quot;border-color: var(--border-color);&quot;&gt;- username: String&lt;br style=&quot;border-color: var(--border-color);&quot;&gt;- password: String" style="text;strokeColor=none;fillColor=none;align=left;verticalAlign=top;spacingLeft=4;spacingRight=4;overflow=hidden;rotatable=0;points=[[0,0.5],[1,0.5]];portConstraint=eastwest;whiteSpace=wrap;html=1;" vertex="1" parent="RcZarx6HuU96OubllClO-14">
          <mxGeometry y="26" width="200" height="74" as="geometry" />
        </mxCell>
        <mxCell id="RcZarx6HuU96OubllClO-16" value="" style="line;strokeWidth=1;fillColor=none;align=left;verticalAlign=middle;spacingTop=-1;spacingLeft=3;spacingRight=3;rotatable=0;labelPosition=right;points=[];portConstraint=eastwest;strokeColor=inherit;" vertex="1" parent="RcZarx6HuU96OubllClO-14">
          <mxGeometry y="100" width="200" height="8" as="geometry" />
        </mxCell>
        <mxCell id="RcZarx6HuU96OubllClO-17" value="FTPServerDatabase()&lt;br&gt;+ connect(): void&lt;br&gt;+ close(): void" style="text;strokeColor=none;fillColor=none;align=left;verticalAlign=top;spacingLeft=4;spacingRight=4;overflow=hidden;rotatable=0;points=[[0,0.5],[1,0.5]];portConstraint=eastwest;whiteSpace=wrap;html=1;" vertex="1" parent="RcZarx6HuU96OubllClO-14">
          <mxGeometry y="108" width="200" height="62" as="geometry" />
        </mxCell>
        <mxCell id="RcZarx6HuU96OubllClO-22" value="" style="endArrow=classic;html=1;rounded=0;exitX=0.815;exitY=0;exitDx=0;exitDy=0;exitPerimeter=0;entryX=0.08;entryY=1.095;entryDx=0;entryDy=0;entryPerimeter=0;" edge="1" parent="1" source="RcZarx6HuU96OubllClO-2" target="RcZarx6HuU96OubllClO-13">
          <mxGeometry width="50" height="50" relative="1" as="geometry">
            <mxPoint x="1110" y="160" as="sourcePoint" />
            <mxPoint x="1160" y="110" as="targetPoint" />
          </mxGeometry>
        </mxCell>
        <mxCell id="RcZarx6HuU96OubllClO-23" value="" style="endArrow=classic;html=1;rounded=0;exitX=0.605;exitY=1;exitDx=0;exitDy=0;exitPerimeter=0;entryX=0.47;entryY=-0.012;entryDx=0;entryDy=0;entryPerimeter=0;" edge="1" parent="1" source="RcZarx6HuU96OubllClO-13" target="RcZarx6HuU96OubllClO-6">
          <mxGeometry width="50" height="50" relative="1" as="geometry">
            <mxPoint x="1380" y="240" as="sourcePoint" />
            <mxPoint x="1430" y="190" as="targetPoint" />
          </mxGeometry>
        </mxCell>
        <mxCell id="RcZarx6HuU96OubllClO-26" value="" style="endArrow=classic;html=1;rounded=0;" edge="1" parent="1" source="RcZarx6HuU96OubllClO-14" target="RcZarx6HuU96OubllClO-6">
          <mxGeometry width="50" height="50" relative="1" as="geometry">
            <mxPoint x="1540" y="120" as="sourcePoint" />
            <mxPoint x="1590" y="70" as="targetPoint" />
          </mxGeometry>
        </mxCell>
      </root>
    </mxGraphModel>
  </diagram>
  <diagram id="IyAdFwkcAaiemtqke3uz" name="Sơ đồ lớp phân rã">
    <mxGraphModel dx="1199" dy="602" grid="1" gridSize="10" guides="1" tooltips="1" connect="1" arrows="1" fold="1" page="1" pageScale="1" pageWidth="850" pageHeight="1100" math="0" shadow="0">
      <root>
        <mxCell id="0" />
        <mxCell id="1" parent="0" />
        <mxCell id="cUNjI7ir6xx2SiMZmUwr-37" value="CommandSplit" style="swimlane;fontStyle=1;align=center;verticalAlign=top;childLayout=stackLayout;horizontal=1;startSize=26;horizontalStack=0;resizeParent=1;resizeParentMax=0;resizeLast=0;collapsible=1;marginBottom=0;whiteSpace=wrap;html=1;" vertex="1" parent="1">
          <mxGeometry x="740" y="180" width="200" height="120" as="geometry" />
        </mxCell>
        <mxCell id="cUNjI7ir6xx2SiMZmUwr-38" value="- pattern: Pattern&lt;br&gt;- matcher: Matcher" style="text;strokeColor=none;fillColor=none;align=left;verticalAlign=top;spacingLeft=4;spacingRight=4;overflow=hidden;rotatable=0;points=[[0,0.5],[1,0.5]];portConstraint=eastwest;whiteSpace=wrap;html=1;" vertex="1" parent="cUNjI7ir6xx2SiMZmUwr-37">
          <mxGeometry y="26" width="200" height="44" as="geometry" />
        </mxCell>
        <mxCell id="cUNjI7ir6xx2SiMZmUwr-39" value="" style="line;strokeWidth=1;fillColor=none;align=left;verticalAlign=middle;spacingTop=-1;spacingLeft=3;spacingRight=3;rotatable=0;labelPosition=right;points=[];portConstraint=eastwest;strokeColor=inherit;" vertex="1" parent="cUNjI7ir6xx2SiMZmUwr-37">
          <mxGeometry y="70" width="200" height="8" as="geometry" />
        </mxCell>
        <mxCell id="cUNjI7ir6xx2SiMZmUwr-40" value="CommandSplit()&lt;br&gt;+ nextCommand(): String" style="text;strokeColor=none;fillColor=none;align=left;verticalAlign=top;spacingLeft=4;spacingRight=4;overflow=hidden;rotatable=0;points=[[0,0.5],[1,0.5]];portConstraint=eastwest;whiteSpace=wrap;html=1;" vertex="1" parent="cUNjI7ir6xx2SiMZmUwr-37">
          <mxGeometry y="78" width="200" height="42" as="geometry" />
        </mxCell>
        <mxCell id="bnTp2KfyWkyruPPUXOtM-1" value="FTPLoginController" style="swimlane;fontStyle=1;align=center;verticalAlign=top;childLayout=stackLayout;horizontal=1;startSize=26;horizontalStack=0;resizeParent=1;resizeParentMax=0;resizeLast=0;collapsible=1;marginBottom=0;whiteSpace=wrap;html=1;" vertex="1" parent="1">
          <mxGeometry x="190" y="120" width="220" height="150" as="geometry" />
        </mxCell>
        <mxCell id="bnTp2KfyWkyruPPUXOtM-2" value="- ftpLoginView: FTPLoginView&lt;br&gt;- ftpLoginModel: FTPLoginModel" style="text;strokeColor=none;fillColor=none;align=left;verticalAlign=top;spacingLeft=4;spacingRight=4;overflow=hidden;rotatable=0;points=[[0,0.5],[1,0.5]];portConstraint=eastwest;whiteSpace=wrap;html=1;" vertex="1" parent="bnTp2KfyWkyruPPUXOtM-1">
          <mxGeometry y="26" width="220" height="44" as="geometry" />
        </mxCell>
        <mxCell id="bnTp2KfyWkyruPPUXOtM-3" value="" style="line;strokeWidth=1;fillColor=none;align=left;verticalAlign=middle;spacingTop=-1;spacingLeft=3;spacingRight=3;rotatable=0;labelPosition=right;points=[];portConstraint=eastwest;strokeColor=inherit;" vertex="1" parent="bnTp2KfyWkyruPPUXOtM-1">
          <mxGeometry y="70" width="220" height="8" as="geometry" />
        </mxCell>
        <mxCell id="bnTp2KfyWkyruPPUXOtM-4" value="FTPLoginController()&lt;br&gt;+&amp;nbsp;initialize(): void&lt;div style=&quot;background-color:#2f2f2f;padding:0px 0px 0px 2px;&quot;&gt;&lt;div style=&quot;color: rgb(170, 170, 170); font-family: &amp;quot;Courier New&amp;quot;; font-size: 8pt;&quot;&gt;&lt;p style=&quot;background-color:#373737;margin:0;&quot;&gt;&lt;span style=&quot;color:#d9e8f7;&quot;&gt;&lt;/span&gt;&lt;/p&gt;&lt;/div&gt;&lt;/div&gt;+ connectButton(): void&lt;br&gt;+ exitButton(): void" style="text;strokeColor=none;fillColor=none;align=left;verticalAlign=top;spacingLeft=4;spacingRight=4;overflow=hidden;rotatable=0;points=[[0,0.5],[1,0.5]];portConstraint=eastwest;whiteSpace=wrap;html=1;" vertex="1" parent="bnTp2KfyWkyruPPUXOtM-1">
          <mxGeometry y="78" width="220" height="72" as="geometry" />
        </mxCell>
        <mxCell id="bnTp2KfyWkyruPPUXOtM-5" value="FTPLoginModel&lt;br&gt;" style="swimlane;fontStyle=1;align=center;verticalAlign=top;childLayout=stackLayout;horizontal=1;startSize=26;horizontalStack=0;resizeParent=1;resizeParentMax=0;resizeLast=0;collapsible=1;marginBottom=0;whiteSpace=wrap;html=1;" vertex="1" parent="1">
          <mxGeometry x="160" y="413" width="155" height="150" as="geometry" />
        </mxCell>
        <mxCell id="bnTp2KfyWkyruPPUXOtM-6" value="- socket: Socket&lt;br&gt;- send: OutputStream&lt;br&gt;- recv: BufferedReader" style="text;strokeColor=none;fillColor=none;align=left;verticalAlign=top;spacingLeft=4;spacingRight=4;overflow=hidden;rotatable=0;points=[[0,0.5],[1,0.5]];portConstraint=eastwest;whiteSpace=wrap;html=1;" vertex="1" parent="bnTp2KfyWkyruPPUXOtM-5">
          <mxGeometry y="26" width="155" height="54" as="geometry" />
        </mxCell>
        <mxCell id="bnTp2KfyWkyruPPUXOtM-7" value="" style="line;strokeWidth=1;fillColor=none;align=left;verticalAlign=middle;spacingTop=-1;spacingLeft=3;spacingRight=3;rotatable=0;labelPosition=right;points=[];portConstraint=eastwest;strokeColor=inherit;" vertex="1" parent="bnTp2KfyWkyruPPUXOtM-5">
          <mxGeometry y="80" width="155" height="8" as="geometry" />
        </mxCell>
        <mxCell id="bnTp2KfyWkyruPPUXOtM-8" value="FTPLoginModel()&lt;br&gt;+ connect(): void&lt;br&gt;+ close(): void" style="text;strokeColor=none;fillColor=none;align=left;verticalAlign=top;spacingLeft=4;spacingRight=4;overflow=hidden;rotatable=0;points=[[0,0.5],[1,0.5]];portConstraint=eastwest;whiteSpace=wrap;html=1;" vertex="1" parent="bnTp2KfyWkyruPPUXOtM-5">
          <mxGeometry y="88" width="155" height="62" as="geometry" />
        </mxCell>
        <mxCell id="bnTp2KfyWkyruPPUXOtM-9" value="FTPLoginView" style="swimlane;fontStyle=1;align=center;verticalAlign=top;childLayout=stackLayout;horizontal=1;startSize=26;horizontalStack=0;resizeParent=1;resizeParentMax=0;resizeLast=0;collapsible=1;marginBottom=0;whiteSpace=wrap;html=1;" vertex="1" parent="1">
          <mxGeometry x="300" y="293" width="140" height="110" as="geometry" />
        </mxCell>
        <mxCell id="bnTp2KfyWkyruPPUXOtM-10" value="-" style="text;strokeColor=none;fillColor=none;align=left;verticalAlign=top;spacingLeft=4;spacingRight=4;overflow=hidden;rotatable=0;points=[[0,0.5],[1,0.5]];portConstraint=eastwest;whiteSpace=wrap;html=1;" vertex="1" parent="bnTp2KfyWkyruPPUXOtM-9">
          <mxGeometry y="26" width="140" height="26" as="geometry" />
        </mxCell>
        <mxCell id="bnTp2KfyWkyruPPUXOtM-11" value="" style="line;strokeWidth=1;fillColor=none;align=left;verticalAlign=middle;spacingTop=-1;spacingLeft=3;spacingRight=3;rotatable=0;labelPosition=right;points=[];portConstraint=eastwest;strokeColor=inherit;" vertex="1" parent="bnTp2KfyWkyruPPUXOtM-9">
          <mxGeometry y="52" width="140" height="8" as="geometry" />
        </mxCell>
        <mxCell id="bnTp2KfyWkyruPPUXOtM-12" value="FTPLoginView()&lt;br&gt;+ showMessage(): void" style="text;strokeColor=none;fillColor=none;align=left;verticalAlign=top;spacingLeft=4;spacingRight=4;overflow=hidden;rotatable=0;points=[[0,0.5],[1,0.5]];portConstraint=eastwest;whiteSpace=wrap;html=1;" vertex="1" parent="bnTp2KfyWkyruPPUXOtM-9">
          <mxGeometry y="60" width="140" height="50" as="geometry" />
        </mxCell>
        <mxCell id="bnTp2KfyWkyruPPUXOtM-13" value="FTPMainController" style="swimlane;fontStyle=1;align=center;verticalAlign=top;childLayout=stackLayout;horizontal=1;startSize=26;horizontalStack=0;resizeParent=1;resizeParentMax=0;resizeLast=0;collapsible=1;marginBottom=0;whiteSpace=wrap;html=1;" vertex="1" parent="1">
          <mxGeometry x="510" y="120" width="190" height="150" as="geometry" />
        </mxCell>
        <mxCell id="bnTp2KfyWkyruPPUXOtM-14" value="- primaryStage: Stage" style="text;strokeColor=none;fillColor=none;align=left;verticalAlign=top;spacingLeft=4;spacingRight=4;overflow=hidden;rotatable=0;points=[[0,0.5],[1,0.5]];portConstraint=eastwest;whiteSpace=wrap;html=1;" vertex="1" parent="bnTp2KfyWkyruPPUXOtM-13">
          <mxGeometry y="26" width="190" height="26" as="geometry" />
        </mxCell>
        <mxCell id="bnTp2KfyWkyruPPUXOtM-15" value="" style="line;strokeWidth=1;fillColor=none;align=left;verticalAlign=middle;spacingTop=-1;spacingLeft=3;spacingRight=3;rotatable=0;labelPosition=right;points=[];portConstraint=eastwest;strokeColor=inherit;" vertex="1" parent="bnTp2KfyWkyruPPUXOtM-13">
          <mxGeometry y="52" width="190" height="8" as="geometry" />
        </mxCell>
        <mxCell id="bnTp2KfyWkyruPPUXOtM-16" value="FTPMainController()&lt;br&gt;+&amp;nbsp;initialize(): void&lt;div style=&quot;border-color: var(--border-color); background-color: rgb(47, 47, 47); padding: 0px 0px 0px 2px;&quot;&gt;&lt;div style=&quot;border-color: var(--border-color); color: rgb(170, 170, 170); font-family: &amp;quot;Courier New&amp;quot;; font-size: 8pt;&quot;&gt;&lt;p style=&quot;border-color: var(--border-color); background-color: rgb(55, 55, 55); margin: 0px;&quot;&gt;&lt;/p&gt;&lt;/div&gt;&lt;/div&gt;+ confirmClose(): void&lt;br&gt;+ prepareMenuItem(): void&lt;br&gt;+ prepareContextMenu(): void" style="text;strokeColor=none;fillColor=none;align=left;verticalAlign=top;spacingLeft=4;spacingRight=4;overflow=hidden;rotatable=0;points=[[0,0.5],[1,0.5]];portConstraint=eastwest;whiteSpace=wrap;html=1;" vertex="1" parent="bnTp2KfyWkyruPPUXOtM-13">
          <mxGeometry y="60" width="190" height="90" as="geometry" />
        </mxCell>
        <mxCell id="bnTp2KfyWkyruPPUXOtM-17" value="FTPMainModel" style="swimlane;fontStyle=1;align=center;verticalAlign=top;childLayout=stackLayout;horizontal=1;startSize=26;horizontalStack=0;resizeParent=1;resizeParentMax=0;resizeLast=0;collapsible=1;marginBottom=0;whiteSpace=wrap;html=1;" vertex="1" parent="1">
          <mxGeometry x="610" y="353" width="140" height="150" as="geometry" />
        </mxCell>
        <mxCell id="bnTp2KfyWkyruPPUXOtM-18" value="- localPath: String&lt;br&gt;- remotePath: String" style="text;strokeColor=none;fillColor=none;align=left;verticalAlign=top;spacingLeft=4;spacingRight=4;overflow=hidden;rotatable=0;points=[[0,0.5],[1,0.5]];portConstraint=eastwest;whiteSpace=wrap;html=1;" vertex="1" parent="bnTp2KfyWkyruPPUXOtM-17">
          <mxGeometry y="26" width="140" height="44" as="geometry" />
        </mxCell>
        <mxCell id="bnTp2KfyWkyruPPUXOtM-19" value="" style="line;strokeWidth=1;fillColor=none;align=left;verticalAlign=middle;spacingTop=-1;spacingLeft=3;spacingRight=3;rotatable=0;labelPosition=right;points=[];portConstraint=eastwest;strokeColor=inherit;" vertex="1" parent="bnTp2KfyWkyruPPUXOtM-17">
          <mxGeometry y="70" width="140" height="8" as="geometry" />
        </mxCell>
        <mxCell id="bnTp2KfyWkyruPPUXOtM-20" value="FTPMainModel()&lt;br&gt;+ mkdirLocal(): void&lt;br&gt;+ mkdirRemote(): void&lt;br&gt;....." style="text;strokeColor=none;fillColor=none;align=left;verticalAlign=top;spacingLeft=4;spacingRight=4;overflow=hidden;rotatable=0;points=[[0,0.5],[1,0.5]];portConstraint=eastwest;whiteSpace=wrap;html=1;" vertex="1" parent="bnTp2KfyWkyruPPUXOtM-17">
          <mxGeometry y="78" width="140" height="72" as="geometry" />
        </mxCell>
        <mxCell id="bnTp2KfyWkyruPPUXOtM-21" value="FTPMainView" style="swimlane;fontStyle=1;align=center;verticalAlign=top;childLayout=stackLayout;horizontal=1;startSize=26;horizontalStack=0;resizeParent=1;resizeParentMax=0;resizeLast=0;collapsible=1;marginBottom=0;whiteSpace=wrap;html=1;" vertex="1" parent="1">
          <mxGeometry x="460" y="293" width="140" height="130" as="geometry" />
        </mxCell>
        <mxCell id="bnTp2KfyWkyruPPUXOtM-22" value="- textArea: TextArea" style="text;strokeColor=none;fillColor=none;align=left;verticalAlign=top;spacingLeft=4;spacingRight=4;overflow=hidden;rotatable=0;points=[[0,0.5],[1,0.5]];portConstraint=eastwest;whiteSpace=wrap;html=1;" vertex="1" parent="bnTp2KfyWkyruPPUXOtM-21">
          <mxGeometry y="26" width="140" height="26" as="geometry" />
        </mxCell>
        <mxCell id="bnTp2KfyWkyruPPUXOtM-23" value="" style="line;strokeWidth=1;fillColor=none;align=left;verticalAlign=middle;spacingTop=-1;spacingLeft=3;spacingRight=3;rotatable=0;labelPosition=right;points=[];portConstraint=eastwest;strokeColor=inherit;" vertex="1" parent="bnTp2KfyWkyruPPUXOtM-21">
          <mxGeometry y="52" width="140" height="8" as="geometry" />
        </mxCell>
        <mxCell id="bnTp2KfyWkyruPPUXOtM-24" value="FTPMainView()&lt;br&gt;+ showMessage(): void&lt;br&gt;+ askYesOrNo(): void&lt;br&gt;+ showProperties(): void" style="text;strokeColor=none;fillColor=none;align=left;verticalAlign=top;spacingLeft=4;spacingRight=4;overflow=hidden;rotatable=0;points=[[0,0.5],[1,0.5]];portConstraint=eastwest;whiteSpace=wrap;html=1;" vertex="1" parent="bnTp2KfyWkyruPPUXOtM-21">
          <mxGeometry y="60" width="140" height="70" as="geometry" />
        </mxCell>
        <mxCell id="bnTp2KfyWkyruPPUXOtM-25" value="" style="endArrow=classic;html=1;rounded=0;entryX=0.75;entryY=0;entryDx=0;entryDy=0;" edge="1" parent="1" source="bnTp2KfyWkyruPPUXOtM-1" target="bnTp2KfyWkyruPPUXOtM-5">
          <mxGeometry width="50" height="50" relative="1" as="geometry">
            <mxPoint x="110" y="313" as="sourcePoint" />
            <mxPoint x="160" y="263" as="targetPoint" />
          </mxGeometry>
        </mxCell>
        <mxCell id="bnTp2KfyWkyruPPUXOtM-26" value="" style="endArrow=classic;html=1;rounded=0;exitX=0.648;exitY=1.09;exitDx=0;exitDy=0;exitPerimeter=0;entryX=0.413;entryY=0.02;entryDx=0;entryDy=0;entryPerimeter=0;" edge="1" parent="1" source="bnTp2KfyWkyruPPUXOtM-4" target="bnTp2KfyWkyruPPUXOtM-9">
          <mxGeometry width="50" height="50" relative="1" as="geometry">
            <mxPoint x="95" y="345" as="sourcePoint" />
            <mxPoint x="160" y="296" as="targetPoint" />
          </mxGeometry>
        </mxCell>
        <mxCell id="bnTp2KfyWkyruPPUXOtM-27" value="Client" style="rounded=0;whiteSpace=wrap;html=1;fillColor=#58FF4D;" vertex="1" parent="1">
          <mxGeometry x="400" y="463" width="120" height="60" as="geometry" />
        </mxCell>
        <mxCell id="bnTp2KfyWkyruPPUXOtM-28" value="" style="endArrow=classic;html=1;rounded=0;exitX=0.356;exitY=1.007;exitDx=0;exitDy=0;exitPerimeter=0;" edge="1" parent="1" source="bnTp2KfyWkyruPPUXOtM-16" target="bnTp2KfyWkyruPPUXOtM-21">
          <mxGeometry width="50" height="50" relative="1" as="geometry">
            <mxPoint x="188" y="386" as="sourcePoint" />
            <mxPoint x="220" y="397" as="targetPoint" />
          </mxGeometry>
        </mxCell>
        <mxCell id="bnTp2KfyWkyruPPUXOtM-29" value="" style="endArrow=classic;html=1;rounded=0;exitX=0.716;exitY=1.079;exitDx=0;exitDy=0;exitPerimeter=0;" edge="1" parent="1" source="bnTp2KfyWkyruPPUXOtM-16" target="bnTp2KfyWkyruPPUXOtM-17">
          <mxGeometry width="50" height="50" relative="1" as="geometry">
            <mxPoint x="670" y="394" as="sourcePoint" />
            <mxPoint x="722" y="423" as="targetPoint" />
          </mxGeometry>
        </mxCell>
        <mxCell id="bnTp2KfyWkyruPPUXOtM-30" value="" style="endArrow=classic;html=1;rounded=0;exitX=1.008;exitY=0.186;exitDx=0;exitDy=0;exitPerimeter=0;entryX=0.001;entryY=0.878;entryDx=0;entryDy=0;entryPerimeter=0;" edge="1" parent="1" source="bnTp2KfyWkyruPPUXOtM-2" target="bnTp2KfyWkyruPPUXOtM-14">
          <mxGeometry width="50" height="50" relative="1" as="geometry">
            <mxPoint x="480" y="233" as="sourcePoint" />
            <mxPoint x="530" y="183" as="targetPoint" />
          </mxGeometry>
        </mxCell>
        <mxCell id="bnTp2KfyWkyruPPUXOtM-31" value="" style="endArrow=classic;html=1;rounded=0;entryX=0;entryY=0.5;entryDx=0;entryDy=0;" edge="1" parent="1" source="bnTp2KfyWkyruPPUXOtM-17" target="cUNjI7ir6xx2SiMZmUwr-40">
          <mxGeometry width="50" height="50" relative="1" as="geometry">
            <mxPoint x="750" y="280" as="sourcePoint" />
            <mxPoint x="800" y="230" as="targetPoint" />
          </mxGeometry>
        </mxCell>
        <mxCell id="bnTp2KfyWkyruPPUXOtM-32" value="«interface»&lt;br&gt;&lt;b&gt;Initializable&lt;/b&gt;" style="html=1;whiteSpace=wrap;" vertex="1" parent="1">
          <mxGeometry x="350" y="30" width="110" height="50" as="geometry" />
        </mxCell>
        <mxCell id="bnTp2KfyWkyruPPUXOtM-33" value="" style="endArrow=block;dashed=1;endFill=0;endSize=12;html=1;rounded=0;" edge="1" parent="1" source="bnTp2KfyWkyruPPUXOtM-1" target="bnTp2KfyWkyruPPUXOtM-32">
          <mxGeometry width="160" relative="1" as="geometry">
            <mxPoint x="100" y="80" as="sourcePoint" />
            <mxPoint x="260" y="80" as="targetPoint" />
          </mxGeometry>
        </mxCell>
        <mxCell id="bnTp2KfyWkyruPPUXOtM-34" value="«interface»&lt;br&gt;&lt;b&gt;Initializable&lt;/b&gt;" style="html=1;whiteSpace=wrap;" vertex="1" parent="1">
          <mxGeometry x="510" y="40" width="110" height="50" as="geometry" />
        </mxCell>
        <mxCell id="bnTp2KfyWkyruPPUXOtM-35" value="" style="endArrow=block;dashed=1;endFill=0;endSize=12;html=1;rounded=0;exitX=0.5;exitY=0;exitDx=0;exitDy=0;" edge="1" parent="1" target="bnTp2KfyWkyruPPUXOtM-34" source="bnTp2KfyWkyruPPUXOtM-13">
          <mxGeometry width="160" relative="1" as="geometry">
            <mxPoint x="596" y="130" as="sourcePoint" />
            <mxPoint x="500" y="90" as="targetPoint" />
          </mxGeometry>
        </mxCell>
        <mxCell id="ZElNyVuSQ0-PXLc5Yu5j-1" value="Server" style="rounded=0;whiteSpace=wrap;html=1;fillColor=#FF9696;" vertex="1" parent="1">
          <mxGeometry x="1550" y="140" width="120" height="60" as="geometry" />
        </mxCell>
        <mxCell id="ZElNyVuSQ0-PXLc5Yu5j-2" value="FTPServerUI" style="swimlane;fontStyle=1;align=center;verticalAlign=top;childLayout=stackLayout;horizontal=1;startSize=26;horizontalStack=0;resizeParent=1;resizeParentMax=0;resizeLast=0;collapsible=1;marginBottom=0;whiteSpace=wrap;html=1;" vertex="1" parent="1">
          <mxGeometry x="1140" y="283" width="200" height="120" as="geometry" />
        </mxCell>
        <mxCell id="ZElNyVuSQ0-PXLc5Yu5j-3" value="- ftpServerController: FTPServerController" style="text;strokeColor=none;fillColor=none;align=left;verticalAlign=top;spacingLeft=4;spacingRight=4;overflow=hidden;rotatable=0;points=[[0,0.5],[1,0.5]];portConstraint=eastwest;whiteSpace=wrap;html=1;" vertex="1" parent="ZElNyVuSQ0-PXLc5Yu5j-2">
          <mxGeometry y="26" width="200" height="44" as="geometry" />
        </mxCell>
        <mxCell id="ZElNyVuSQ0-PXLc5Yu5j-4" value="" style="line;strokeWidth=1;fillColor=none;align=left;verticalAlign=middle;spacingTop=-1;spacingLeft=3;spacingRight=3;rotatable=0;labelPosition=right;points=[];portConstraint=eastwest;strokeColor=inherit;" vertex="1" parent="ZElNyVuSQ0-PXLc5Yu5j-2">
          <mxGeometry y="70" width="200" height="8" as="geometry" />
        </mxCell>
        <mxCell id="ZElNyVuSQ0-PXLc5Yu5j-5" value="FTPServerUI()&lt;br&gt;+ run(): void" style="text;strokeColor=none;fillColor=none;align=left;verticalAlign=top;spacingLeft=4;spacingRight=4;overflow=hidden;rotatable=0;points=[[0,0.5],[1,0.5]];portConstraint=eastwest;whiteSpace=wrap;html=1;" vertex="1" parent="ZElNyVuSQ0-PXLc5Yu5j-2">
          <mxGeometry y="78" width="200" height="42" as="geometry" />
        </mxCell>
        <mxCell id="ZElNyVuSQ0-PXLc5Yu5j-6" value="FTPServerModel" style="swimlane;fontStyle=1;align=center;verticalAlign=top;childLayout=stackLayout;horizontal=1;startSize=26;horizontalStack=0;resizeParent=1;resizeParentMax=0;resizeLast=0;collapsible=1;marginBottom=0;whiteSpace=wrap;html=1;" vertex="1" parent="1">
          <mxGeometry x="1360" y="278" width="200" height="160" as="geometry" />
        </mxCell>
        <mxCell id="ZElNyVuSQ0-PXLc5Yu5j-7" value="- path: String&lt;br&gt;- ipAddress: String&lt;br&gt;- port: int&lt;br&gt;- username: String&lt;br&gt;- password: String" style="text;strokeColor=none;fillColor=none;align=left;verticalAlign=top;spacingLeft=4;spacingRight=4;overflow=hidden;rotatable=0;points=[[0,0.5],[1,0.5]];portConstraint=eastwest;whiteSpace=wrap;html=1;" vertex="1" parent="ZElNyVuSQ0-PXLc5Yu5j-6">
          <mxGeometry y="26" width="200" height="84" as="geometry" />
        </mxCell>
        <mxCell id="ZElNyVuSQ0-PXLc5Yu5j-8" value="" style="line;strokeWidth=1;fillColor=none;align=left;verticalAlign=middle;spacingTop=-1;spacingLeft=3;spacingRight=3;rotatable=0;labelPosition=right;points=[];portConstraint=eastwest;strokeColor=inherit;" vertex="1" parent="ZElNyVuSQ0-PXLc5Yu5j-6">
          <mxGeometry y="110" width="200" height="8" as="geometry" />
        </mxCell>
        <mxCell id="ZElNyVuSQ0-PXLc5Yu5j-9" value="FTPServerModel()&lt;br&gt;+ start(): void" style="text;strokeColor=none;fillColor=none;align=left;verticalAlign=top;spacingLeft=4;spacingRight=4;overflow=hidden;rotatable=0;points=[[0,0.5],[1,0.5]];portConstraint=eastwest;whiteSpace=wrap;html=1;" vertex="1" parent="ZElNyVuSQ0-PXLc5Yu5j-6">
          <mxGeometry y="118" width="200" height="42" as="geometry" />
        </mxCell>
        <mxCell id="ZElNyVuSQ0-PXLc5Yu5j-10" value="FTPServerController" style="swimlane;fontStyle=1;align=center;verticalAlign=top;childLayout=stackLayout;horizontal=1;startSize=26;horizontalStack=0;resizeParent=1;resizeParentMax=0;resizeLast=0;collapsible=1;marginBottom=0;whiteSpace=wrap;html=1;" vertex="1" parent="1">
          <mxGeometry x="1310" y="140" width="200" height="110" as="geometry" />
        </mxCell>
        <mxCell id="ZElNyVuSQ0-PXLc5Yu5j-11" value="- model: FTPServerModel" style="text;strokeColor=none;fillColor=none;align=left;verticalAlign=top;spacingLeft=4;spacingRight=4;overflow=hidden;rotatable=0;points=[[0,0.5],[1,0.5]];portConstraint=eastwest;whiteSpace=wrap;html=1;" vertex="1" parent="ZElNyVuSQ0-PXLc5Yu5j-10">
          <mxGeometry y="26" width="200" height="34" as="geometry" />
        </mxCell>
        <mxCell id="ZElNyVuSQ0-PXLc5Yu5j-12" value="" style="line;strokeWidth=1;fillColor=none;align=left;verticalAlign=middle;spacingTop=-1;spacingLeft=3;spacingRight=3;rotatable=0;labelPosition=right;points=[];portConstraint=eastwest;strokeColor=inherit;" vertex="1" parent="ZElNyVuSQ0-PXLc5Yu5j-10">
          <mxGeometry y="60" width="200" height="8" as="geometry" />
        </mxCell>
        <mxCell id="ZElNyVuSQ0-PXLc5Yu5j-13" value="FTPServerController()&lt;br&gt;+ execute(): void" style="text;strokeColor=none;fillColor=none;align=left;verticalAlign=top;spacingLeft=4;spacingRight=4;overflow=hidden;rotatable=0;points=[[0,0.5],[1,0.5]];portConstraint=eastwest;whiteSpace=wrap;html=1;" vertex="1" parent="ZElNyVuSQ0-PXLc5Yu5j-10">
          <mxGeometry y="68" width="200" height="42" as="geometry" />
        </mxCell>
        <mxCell id="ZElNyVuSQ0-PXLc5Yu5j-14" value="FTPServerDatabase" style="swimlane;fontStyle=1;align=center;verticalAlign=top;childLayout=stackLayout;horizontal=1;startSize=26;horizontalStack=0;resizeParent=1;resizeParentMax=0;resizeLast=0;collapsible=1;marginBottom=0;whiteSpace=wrap;html=1;" vertex="1" parent="1">
          <mxGeometry x="1600" y="223" width="200" height="170" as="geometry" />
        </mxCell>
        <mxCell id="ZElNyVuSQ0-PXLc5Yu5j-15" value="- ipAddress: String&lt;br style=&quot;border-color: var(--border-color);&quot;&gt;- port: int&lt;br style=&quot;border-color: var(--border-color);&quot;&gt;- username: String&lt;br style=&quot;border-color: var(--border-color);&quot;&gt;- password: String" style="text;strokeColor=none;fillColor=none;align=left;verticalAlign=top;spacingLeft=4;spacingRight=4;overflow=hidden;rotatable=0;points=[[0,0.5],[1,0.5]];portConstraint=eastwest;whiteSpace=wrap;html=1;" vertex="1" parent="ZElNyVuSQ0-PXLc5Yu5j-14">
          <mxGeometry y="26" width="200" height="74" as="geometry" />
        </mxCell>
        <mxCell id="ZElNyVuSQ0-PXLc5Yu5j-16" value="" style="line;strokeWidth=1;fillColor=none;align=left;verticalAlign=middle;spacingTop=-1;spacingLeft=3;spacingRight=3;rotatable=0;labelPosition=right;points=[];portConstraint=eastwest;strokeColor=inherit;" vertex="1" parent="ZElNyVuSQ0-PXLc5Yu5j-14">
          <mxGeometry y="100" width="200" height="8" as="geometry" />
        </mxCell>
        <mxCell id="ZElNyVuSQ0-PXLc5Yu5j-17" value="FTPServerDatabase()&lt;br&gt;+ connect(): void&lt;br&gt;+ close(): void" style="text;strokeColor=none;fillColor=none;align=left;verticalAlign=top;spacingLeft=4;spacingRight=4;overflow=hidden;rotatable=0;points=[[0,0.5],[1,0.5]];portConstraint=eastwest;whiteSpace=wrap;html=1;" vertex="1" parent="ZElNyVuSQ0-PXLc5Yu5j-14">
          <mxGeometry y="108" width="200" height="62" as="geometry" />
        </mxCell>
        <mxCell id="ZElNyVuSQ0-PXLc5Yu5j-18" value="FTPServerHandle" style="swimlane;fontStyle=1;align=center;verticalAlign=top;childLayout=stackLayout;horizontal=1;startSize=26;horizontalStack=0;resizeParent=1;resizeParentMax=0;resizeLast=0;collapsible=1;marginBottom=0;whiteSpace=wrap;html=1;" vertex="1" parent="1">
          <mxGeometry x="1350" y="480" width="240" height="150" as="geometry" />
        </mxCell>
        <mxCell id="ZElNyVuSQ0-PXLc5Yu5j-19" value="- ftpServerDatabase: FTPServerDatabase&lt;br&gt;- isLoggedIn: byte&lt;br&gt;- clientSocket: Socket" style="text;strokeColor=none;fillColor=none;align=left;verticalAlign=top;spacingLeft=4;spacingRight=4;overflow=hidden;rotatable=0;points=[[0,0.5],[1,0.5]];portConstraint=eastwest;whiteSpace=wrap;html=1;" vertex="1" parent="ZElNyVuSQ0-PXLc5Yu5j-18">
          <mxGeometry y="26" width="240" height="54" as="geometry" />
        </mxCell>
        <mxCell id="ZElNyVuSQ0-PXLc5Yu5j-20" value="" style="line;strokeWidth=1;fillColor=none;align=left;verticalAlign=middle;spacingTop=-1;spacingLeft=3;spacingRight=3;rotatable=0;labelPosition=right;points=[];portConstraint=eastwest;strokeColor=inherit;" vertex="1" parent="ZElNyVuSQ0-PXLc5Yu5j-18">
          <mxGeometry y="80" width="240" height="8" as="geometry" />
        </mxCell>
        <mxCell id="ZElNyVuSQ0-PXLc5Yu5j-21" value="FTPServerHandle()&lt;br&gt;+ run(): void&lt;br&gt;+ handleCommand()" style="text;strokeColor=none;fillColor=none;align=left;verticalAlign=top;spacingLeft=4;spacingRight=4;overflow=hidden;rotatable=0;points=[[0,0.5],[1,0.5]];portConstraint=eastwest;whiteSpace=wrap;html=1;" vertex="1" parent="ZElNyVuSQ0-PXLc5Yu5j-18">
          <mxGeometry y="88" width="240" height="62" as="geometry" />
        </mxCell>
        <mxCell id="ZElNyVuSQ0-PXLc5Yu5j-22" value="" style="endArrow=classic;html=1;rounded=0;exitX=0.815;exitY=0;exitDx=0;exitDy=0;exitPerimeter=0;entryX=0.08;entryY=1.095;entryDx=0;entryDy=0;entryPerimeter=0;" edge="1" parent="1" source="ZElNyVuSQ0-PXLc5Yu5j-2" target="ZElNyVuSQ0-PXLc5Yu5j-13">
          <mxGeometry width="50" height="50" relative="1" as="geometry">
            <mxPoint x="1220" y="263" as="sourcePoint" />
            <mxPoint x="1270" y="213" as="targetPoint" />
          </mxGeometry>
        </mxCell>
        <mxCell id="ZElNyVuSQ0-PXLc5Yu5j-23" value="" style="endArrow=classic;html=1;rounded=0;exitX=0.605;exitY=1;exitDx=0;exitDy=0;exitPerimeter=0;entryX=0.47;entryY=-0.012;entryDx=0;entryDy=0;entryPerimeter=0;" edge="1" parent="1" source="ZElNyVuSQ0-PXLc5Yu5j-13" target="ZElNyVuSQ0-PXLc5Yu5j-6">
          <mxGeometry width="50" height="50" relative="1" as="geometry">
            <mxPoint x="1490" y="343" as="sourcePoint" />
            <mxPoint x="1540" y="293" as="targetPoint" />
          </mxGeometry>
        </mxCell>
        <mxCell id="ZElNyVuSQ0-PXLc5Yu5j-24" value="" style="endArrow=classic;html=1;rounded=0;" edge="1" parent="1" source="ZElNyVuSQ0-PXLc5Yu5j-14" target="ZElNyVuSQ0-PXLc5Yu5j-6">
          <mxGeometry width="50" height="50" relative="1" as="geometry">
            <mxPoint x="1650" y="223" as="sourcePoint" />
            <mxPoint x="1700" y="173" as="targetPoint" />
          </mxGeometry>
        </mxCell>
        <mxCell id="ZElNyVuSQ0-PXLc5Yu5j-25" value="" style="endArrow=open;endFill=1;endSize=12;html=1;rounded=0;exitX=0.5;exitY=0;exitDx=0;exitDy=0;" edge="1" parent="1" source="ZElNyVuSQ0-PXLc5Yu5j-18" target="ZElNyVuSQ0-PXLc5Yu5j-9">
          <mxGeometry width="160" relative="1" as="geometry">
            <mxPoint x="1220" y="460" as="sourcePoint" />
            <mxPoint x="1380" y="460" as="targetPoint" />
          </mxGeometry>
        </mxCell>
        <mxCell id="ZElNyVuSQ0-PXLc5Yu5j-26" value="«interface»&lt;br&gt;&lt;b&gt;Runnable&lt;/b&gt;" style="html=1;whiteSpace=wrap;" vertex="1" parent="1">
          <mxGeometry x="1200" y="456" width="110" height="50" as="geometry" />
        </mxCell>
        <mxCell id="ZElNyVuSQ0-PXLc5Yu5j-27" value="" style="endArrow=block;dashed=1;endFill=0;endSize=12;html=1;rounded=0;exitX=0;exitY=0.815;exitDx=0;exitDy=0;exitPerimeter=0;" edge="1" parent="1" target="ZElNyVuSQ0-PXLc5Yu5j-26" source="ZElNyVuSQ0-PXLc5Yu5j-19">
          <mxGeometry width="160" relative="1" as="geometry">
            <mxPoint x="1275" y="533" as="sourcePoint" />
            <mxPoint x="1170" y="503" as="targetPoint" />
          </mxGeometry>
        </mxCell>
        <mxCell id="ZElNyVuSQ0-PXLc5Yu5j-28" value="CommandSplit" style="swimlane;fontStyle=1;align=center;verticalAlign=top;childLayout=stackLayout;horizontal=1;startSize=26;horizontalStack=0;resizeParent=1;resizeParentMax=0;resizeLast=0;collapsible=1;marginBottom=0;whiteSpace=wrap;html=1;" vertex="1" parent="1">
          <mxGeometry x="1630" y="413" width="200" height="120" as="geometry" />
        </mxCell>
        <mxCell id="ZElNyVuSQ0-PXLc5Yu5j-29" value="- pattern: Pattern&lt;br&gt;- matcher: Matcher" style="text;strokeColor=none;fillColor=none;align=left;verticalAlign=top;spacingLeft=4;spacingRight=4;overflow=hidden;rotatable=0;points=[[0,0.5],[1,0.5]];portConstraint=eastwest;whiteSpace=wrap;html=1;" vertex="1" parent="ZElNyVuSQ0-PXLc5Yu5j-28">
          <mxGeometry y="26" width="200" height="44" as="geometry" />
        </mxCell>
        <mxCell id="ZElNyVuSQ0-PXLc5Yu5j-30" value="" style="line;strokeWidth=1;fillColor=none;align=left;verticalAlign=middle;spacingTop=-1;spacingLeft=3;spacingRight=3;rotatable=0;labelPosition=right;points=[];portConstraint=eastwest;strokeColor=inherit;" vertex="1" parent="ZElNyVuSQ0-PXLc5Yu5j-28">
          <mxGeometry y="70" width="200" height="8" as="geometry" />
        </mxCell>
        <mxCell id="ZElNyVuSQ0-PXLc5Yu5j-31" value="CommandSplit()&lt;br&gt;+ nextCommand(): String" style="text;strokeColor=none;fillColor=none;align=left;verticalAlign=top;spacingLeft=4;spacingRight=4;overflow=hidden;rotatable=0;points=[[0,0.5],[1,0.5]];portConstraint=eastwest;whiteSpace=wrap;html=1;" vertex="1" parent="ZElNyVuSQ0-PXLc5Yu5j-28">
          <mxGeometry y="78" width="200" height="42" as="geometry" />
        </mxCell>
        <mxCell id="ZElNyVuSQ0-PXLc5Yu5j-32" value="" style="endArrow=classic;html=1;rounded=0;entryX=0;entryY=0.5;entryDx=0;entryDy=0;" edge="1" parent="1" target="ZElNyVuSQ0-PXLc5Yu5j-31" source="ZElNyVuSQ0-PXLc5Yu5j-19">
          <mxGeometry width="50" height="50" relative="1" as="geometry">
            <mxPoint x="1600" y="586" as="sourcePoint" />
            <mxPoint x="1690" y="463" as="targetPoint" />
          </mxGeometry>
        </mxCell>
      </root>
    </mxGraphModel>
  </diagram>
</mxfile>
